<mxfile host="Electron" agent="Mozilla/5.0 (X11; Linux x86_64) AppleWebKit/537.36 (KHTML, like Gecko) draw.io/27.0.9 Chrome/134.0.6998.205 Electron/35.7.2 Safari/537.36" version="27.0.9">
  <diagram id="R2lEEEUBdFMjLlhIrx00" name="Page-1">
    <mxGraphModel dx="1639" dy="871" grid="0" gridSize="10" guides="1" tooltips="1" connect="1" arrows="1" fold="1" page="1" pageScale="1" pageWidth="827" pageHeight="600" background="#FFFFFF" math="0" shadow="0" extFonts="Permanent Marker^https://fonts.googleapis.com/css?family=Permanent+Marker">
      <root>
        <mxCell id="0" />
        <mxCell id="1" parent="0" />
        <mxCell id="lXF0hYLI2d02iIyfF7CJ-1" value="&lt;font style=&quot;font-size: 18px;&quot;&gt;Pelicula&lt;/font&gt;" style="rounded=0;whiteSpace=wrap;html=1;fontColor=#000000;labelBackgroundColor=#FFFFFF;strokeColor=#000000;fillColor=#FFFFFF;" vertex="1" parent="1">
          <mxGeometry x="234.75" y="367" width="100" height="40" as="geometry" />
        </mxCell>
        <mxCell id="lXF0hYLI2d02iIyfF7CJ-5" value="&lt;font&gt;IdiomaOrig&lt;/font&gt;" style="ellipse;whiteSpace=wrap;html=1;aspect=fixed;fontSize=10;fontColor=#000000;labelBackgroundColor=#FFFFFF;strokeColor=#000000;fillColor=#FFFFFF;" vertex="1" parent="1">
          <mxGeometry x="19.5" y="472.25" width="83" height="33.2" as="geometry" />
        </mxCell>
        <mxCell id="lXF0hYLI2d02iIyfF7CJ-6" value="&lt;font&gt;TitOrig&lt;/font&gt;" style="ellipse;whiteSpace=wrap;html=1;aspect=fixed;fontSize=10;fontColor=#000000;labelBackgroundColor=#FFFFFF;strokeColor=#000000;fillColor=#FFFFFF;" vertex="1" parent="1">
          <mxGeometry x="98" y="516" width="70" height="28" as="geometry" />
        </mxCell>
        <mxCell id="lXF0hYLI2d02iIyfF7CJ-32" value="" style="edgeStyle=orthogonalEdgeStyle;rounded=0;orthogonalLoop=1;jettySize=auto;html=1;" edge="1" parent="1" source="lXF0hYLI2d02iIyfF7CJ-7" target="lXF0hYLI2d02iIyfF7CJ-14">
          <mxGeometry relative="1" as="geometry" />
        </mxCell>
        <mxCell id="lXF0hYLI2d02iIyfF7CJ-33" value="" style="edgeStyle=orthogonalEdgeStyle;rounded=0;orthogonalLoop=1;jettySize=auto;html=1;" edge="1" parent="1" source="lXF0hYLI2d02iIyfF7CJ-7" target="lXF0hYLI2d02iIyfF7CJ-14">
          <mxGeometry relative="1" as="geometry" />
        </mxCell>
        <mxCell id="lXF0hYLI2d02iIyfF7CJ-7" value="&lt;font&gt;Duracion&lt;/font&gt;" style="ellipse;whiteSpace=wrap;html=1;aspect=fixed;fontSize=10;fontColor=#000000;labelBackgroundColor=#FFFFFF;strokeColor=#000000;fillColor=#FFFFFF;" vertex="1" parent="1">
          <mxGeometry x="320.75" y="516" width="70" height="28" as="geometry" />
        </mxCell>
        <mxCell id="lXF0hYLI2d02iIyfF7CJ-8" value="&lt;font&gt;SitioWeb&lt;/font&gt;" style="ellipse;whiteSpace=wrap;html=1;aspect=fixed;fontSize=10;fontColor=#000000;labelBackgroundColor=#FFFFFF;strokeColor=#000000;fillColor=#FFFFFF;" vertex="1" parent="1">
          <mxGeometry x="395.75" y="516" width="70" height="28" as="geometry" />
        </mxCell>
        <mxCell id="lXF0hYLI2d02iIyfF7CJ-9" value="&lt;font&gt;anoProd&lt;/font&gt;" style="ellipse;whiteSpace=wrap;html=1;aspect=fixed;fontSize=10;fontColor=#000000;labelBackgroundColor=#FFFFFF;strokeColor=#000000;fillColor=#FFFFFF;" vertex="1" parent="1">
          <mxGeometry x="21" y="433.25" width="80" height="32" as="geometry" />
        </mxCell>
        <mxCell id="lXF0hYLI2d02iIyfF7CJ-11" value="&lt;font&gt;TitEspanol&lt;/font&gt;" style="ellipse;whiteSpace=wrap;html=1;aspect=fixed;fontSize=10;fontColor=#000000;labelBackgroundColor=#FFFFFF;strokeColor=#000000;fillColor=#FFFFFF;" vertex="1" parent="1">
          <mxGeometry x="171.75" y="516" width="70" height="28" as="geometry" />
        </mxCell>
        <mxCell id="lXF0hYLI2d02iIyfF7CJ-12" value="&lt;font&gt;EstrenoBsAs&lt;/font&gt;" style="ellipse;whiteSpace=wrap;html=1;aspect=fixed;fontSize=10;fontColor=#000000;labelBackgroundColor=#FFFFFF;strokeColor=#000000;fillColor=#FFFFFF;" vertex="1" parent="1">
          <mxGeometry x="627.25" y="516" width="70" height="28" as="geometry" />
        </mxCell>
        <mxCell id="lXF0hYLI2d02iIyfF7CJ-13" value="&lt;font&gt;Minutos&lt;/font&gt;" style="ellipse;whiteSpace=wrap;html=1;aspect=fixed;fontSize=10;fontColor=#000000;labelBackgroundColor=#FFFFFF;strokeColor=#000000;fillColor=#FFFFFF;" vertex="1" parent="1">
          <mxGeometry x="360.75" y="560.6" width="70" height="28" as="geometry" />
        </mxCell>
        <mxCell id="lXF0hYLI2d02iIyfF7CJ-14" value="&lt;font&gt;Hora&lt;/font&gt;" style="ellipse;whiteSpace=wrap;html=1;aspect=fixed;fontSize=10;fontColor=#000000;labelBackgroundColor=#FFFFFF;strokeColor=#000000;fillColor=#FFFFFF;" vertex="1" parent="1">
          <mxGeometry x="281.75" y="560.6" width="70" height="28" as="geometry" />
        </mxCell>
        <mxCell id="lXF0hYLI2d02iIyfF7CJ-15" value="&lt;font&gt;Resumen&lt;/font&gt;" style="ellipse;whiteSpace=wrap;html=1;aspect=fixed;fontSize=10;fontColor=#000000;labelBackgroundColor=#FFFFFF;strokeColor=#000000;fillColor=#FFFFFF;" vertex="1" parent="1">
          <mxGeometry x="246.75" y="516" width="70" height="28" as="geometry" />
        </mxCell>
        <mxCell id="lXF0hYLI2d02iIyfF7CJ-16" value="&lt;font&gt;ID&lt;/font&gt;" style="ellipse;whiteSpace=wrap;html=1;aspect=fixed;fontSize=10;fontColor=#000000;labelBackgroundColor=#FFFFFF;strokeColor=#000000;fillColor=#FFFFFF;fontStyle=4" vertex="1" parent="1">
          <mxGeometry x="26" y="396.25" width="70" height="28" as="geometry" />
        </mxCell>
        <mxCell id="lXF0hYLI2d02iIyfF7CJ-18" value="&lt;font&gt;TitDistribucion&lt;/font&gt;" style="ellipse;whiteSpace=wrap;html=1;aspect=fixed;fontSize=10;fontColor=#000000;labelBackgroundColor=#FFFFFF;strokeColor=#000000;fillColor=#FFFFFF;" vertex="1" parent="1">
          <mxGeometry x="19.5" y="515.2000000000002" width="74" height="29.6" as="geometry" />
        </mxCell>
        <mxCell id="lXF0hYLI2d02iIyfF7CJ-20" value="&lt;font style=&quot;font-size: 18px;&quot;&gt;Actor&lt;/font&gt;" style="rounded=0;whiteSpace=wrap;html=1;fontColor=#000000;labelBackgroundColor=#FFFFFF;strokeColor=#000000;fillColor=#FFFFFF;aspect=fixed;" vertex="1" parent="1">
          <mxGeometry x="498.25" y="373.54999999999995" width="92.5" height="37" as="geometry" />
        </mxCell>
        <mxCell id="lXF0hYLI2d02iIyfF7CJ-21" value="&lt;font style=&quot;font-size: 18px;&quot;&gt;Director&lt;/font&gt;" style="rounded=0;whiteSpace=wrap;html=1;fontColor=#000000;labelBackgroundColor=#FFFFFF;strokeColor=#000000;fillColor=#FFFFFF;aspect=fixed;" vertex="1" parent="1">
          <mxGeometry x="498.25" y="313.7499999999999" width="92.5" height="37" as="geometry" />
        </mxCell>
        <mxCell id="lXF0hYLI2d02iIyfF7CJ-22" value="&lt;font style=&quot;font-size: 18px;&quot;&gt;Persona&lt;/font&gt;" style="rounded=0;whiteSpace=wrap;html=1;fontColor=#000000;labelBackgroundColor=#FFFFFF;strokeColor=#000000;fillColor=#FFFFFF;" vertex="1" parent="1">
          <mxGeometry x="687.25" y="342.25" width="100" height="40" as="geometry" />
        </mxCell>
        <mxCell id="lXF0hYLI2d02iIyfF7CJ-23" value="&lt;font style=&quot;color: rgb(0, 0, 0);&quot;&gt;IS A&lt;/font&gt;" style="triangle;whiteSpace=wrap;html=1;rotation=0;fillColor=#FFFFFF;strokeColor=#000000;" vertex="1" parent="1">
          <mxGeometry x="620.25" y="328.25" width="47" height="68" as="geometry" />
        </mxCell>
        <mxCell id="lXF0hYLI2d02iIyfF7CJ-26" value="&lt;font&gt;&lt;u&gt;Nombre&lt;/u&gt;&lt;/font&gt;" style="ellipse;whiteSpace=wrap;html=1;aspect=fixed;fontSize=10;fontColor=#000000;labelBackgroundColor=#FFFFFF;strokeColor=#000000;fillColor=#FFFFFF;" vertex="1" parent="1">
          <mxGeometry x="664.25" y="395.25" width="70" height="28" as="geometry" />
        </mxCell>
        <mxCell id="lXF0hYLI2d02iIyfF7CJ-27" value="&lt;font&gt;Nacionalidad&lt;/font&gt;" style="ellipse;whiteSpace=wrap;html=1;aspect=fixed;fontSize=10;fontColor=#000000;labelBackgroundColor=#FFFFFF;strokeColor=#000000;fillColor=#FFFFFF;" vertex="1" parent="1">
          <mxGeometry x="740.25" y="395.25" width="70" height="28" as="geometry" />
        </mxCell>
        <mxCell id="lXF0hYLI2d02iIyfF7CJ-28" value="&lt;font style=&quot;font-size: 18px;&quot;&gt;Cine&lt;/font&gt;" style="rounded=0;whiteSpace=wrap;html=1;fontColor=#000000;labelBackgroundColor=#FFFFFF;strokeColor=#000000;fillColor=#FFFFFF;" vertex="1" parent="1">
          <mxGeometry x="76.25" y="68" width="100" height="40" as="geometry" />
        </mxCell>
        <mxCell id="lXF0hYLI2d02iIyfF7CJ-31" value="&lt;font&gt;Tiene&lt;/font&gt;" style="shape=rhombus;perimeter=rhombusPerimeter;whiteSpace=wrap;html=1;align=center;fontColor=#000000;labelBackgroundColor=#FFFFFF;fillColor=#FFFFFF;strokeColor=#000000;aspect=fixed;fontSize=11;" vertex="1" parent="1">
          <mxGeometry x="213.25" y="66.5" width="86" height="43" as="geometry" />
        </mxCell>
        <mxCell id="lXF0hYLI2d02iIyfF7CJ-38" value="&lt;font&gt;Fecha&lt;/font&gt;" style="ellipse;whiteSpace=wrap;html=1;aspect=fixed;fontSize=10;fontColor=#000000;labelBackgroundColor=#FFFFFF;strokeColor=#000000;fillColor=#FFFFFF;" vertex="1" parent="1">
          <mxGeometry x="41.25" y="237" width="70" height="28" as="geometry" />
        </mxCell>
        <mxCell id="lXF0hYLI2d02iIyfF7CJ-39" value="&lt;font&gt;HoraComie&lt;/font&gt;" style="ellipse;whiteSpace=wrap;html=1;aspect=fixed;fontSize=10;fontColor=#000000;labelBackgroundColor=#FFFFFF;strokeColor=#000000;fillColor=#FFFFFF;" vertex="1" parent="1">
          <mxGeometry x="41.25" y="271" width="70" height="28" as="geometry" />
        </mxCell>
        <mxCell id="lXF0hYLI2d02iIyfF7CJ-40" value="&lt;font style=&quot;font-size: 18px;&quot;&gt;Promociones&lt;/font&gt;" style="rounded=0;whiteSpace=wrap;html=1;fontColor=#000000;labelBackgroundColor=#FFFFFF;strokeColor=#000000;fillColor=#FFFFFF;" vertex="1" parent="1">
          <mxGeometry x="549.75" y="63" width="118" height="40" as="geometry" />
        </mxCell>
        <mxCell id="lXF0hYLI2d02iIyfF7CJ-41" value="&lt;font&gt;Descr&lt;/font&gt;" style="ellipse;whiteSpace=wrap;html=1;aspect=fixed;fontSize=10;fontColor=#000000;labelBackgroundColor=#FFFFFF;strokeColor=#000000;fillColor=#FFFFFF;" vertex="1" parent="1">
          <mxGeometry x="574.25" y="13" width="70" height="28" as="geometry" />
        </mxCell>
        <mxCell id="lXF0hYLI2d02iIyfF7CJ-42" value="&lt;font&gt;Descuento&lt;/font&gt;" style="ellipse;whiteSpace=wrap;html=1;aspect=fixed;fontSize=10;fontColor=#000000;labelBackgroundColor=#FFFFFF;strokeColor=#000000;fillColor=#FFFFFF;" vertex="1" parent="1">
          <mxGeometry x="646.25" y="13" width="70" height="28" as="geometry" />
        </mxCell>
        <mxCell id="lXF0hYLI2d02iIyfF7CJ-44" value="&lt;font&gt;CantButacas&lt;/font&gt;" style="ellipse;whiteSpace=wrap;html=1;aspect=fixed;fontSize=10;fontColor=#000000;labelBackgroundColor=#FFFFFF;strokeColor=#000000;fillColor=#FFFFFF;" vertex="1" parent="1">
          <mxGeometry x="391.25" y="11" width="70" height="28" as="geometry" />
        </mxCell>
        <mxCell id="lXF0hYLI2d02iIyfF7CJ-45" value="&lt;font&gt;Nombre&lt;/font&gt;&lt;span style=&quot;color: rgba(0, 0, 0, 0); font-family: monospace; font-size: 0px; text-align: start; text-wrap-mode: nowrap; background-color: rgb(27, 29, 30);&quot;&gt;%3CmxGraphModel%3E%3Croot%3E%3CmxCell%20id%3D%220%22%2F%3E%3CmxCell%20id%3D%221%22%20parent%3D%220%22%2F%3E%3CmxCell%20id%3D%222%22%20value%3D%22%26lt%3Bfont%26gt%3BHoraComie%26lt%3B%2Ffont%26gt%3B%22%20style%3D%22ellipse%3BwhiteSpace%3Dwrap%3Bhtml%3D1%3Baspect%3Dfixed%3BfontSize%3D10%3BfontColor%3D%23000000%3BlabelBackgroundColor%3D%23FFFFFF%3BstrokeColor%3D%23000000%3BfillColor%3D%23FFFFFF%3B%22%20vertex%3D%221%22%20parent%3D%221%22%3E%3CmxGeometry%20x%3D%22331%22%20y%3D%22543%22%20width%3D%2270%22%20height%3D%2228%22%20as%3D%22geometry%22%2F%3E%3C%2FmxCell%3E%3C%2Froot%3E%3C%2FmxGraphModel%3E&lt;/span&gt;" style="ellipse;whiteSpace=wrap;html=1;aspect=fixed;fontSize=10;fontColor=#000000;labelBackgroundColor=#FFFFFF;strokeColor=#000000;fillColor=#FFFFFF;fontStyle=4" vertex="1" parent="1">
          <mxGeometry x="16" y="11" width="70" height="28" as="geometry" />
        </mxCell>
        <mxCell id="lXF0hYLI2d02iIyfF7CJ-46" value="&lt;font&gt;Direccion&lt;/font&gt;" style="ellipse;whiteSpace=wrap;html=1;aspect=fixed;fontSize=10;fontColor=#000000;labelBackgroundColor=#FFFFFF;strokeColor=#000000;fillColor=#FFFFFF;" vertex="1" parent="1">
          <mxGeometry x="92" y="11" width="70" height="28" as="geometry" />
        </mxCell>
        <mxCell id="lXF0hYLI2d02iIyfF7CJ-47" value="&lt;font style=&quot;color: rgb(0, 0, 0); font-size: 18px;&quot;&gt;Sala&lt;/font&gt;" style="shape=ext;margin=3;double=1;whiteSpace=wrap;html=1;align=center;fillColor=#FFFFFF;strokeColor=#000000;fontColor=#000000;" vertex="1" parent="1">
          <mxGeometry x="338.25" y="66.5" width="100" height="40" as="geometry" />
        </mxCell>
        <mxCell id="lXF0hYLI2d02iIyfF7CJ-49" value="&lt;font&gt;Tel&lt;/font&gt;" style="ellipse;whiteSpace=wrap;html=1;aspect=fixed;fontSize=10;fontColor=#000000;labelBackgroundColor=#FFFFFF;strokeColor=#000000;fillColor=#FFFFFF;" vertex="1" parent="1">
          <mxGeometry x="166.5" y="11" width="70" height="28" as="geometry" />
        </mxCell>
        <mxCell id="lXF0hYLI2d02iIyfF7CJ-50" value="&lt;font style=&quot;font-size: 18px;&quot;&gt;Opinion&lt;/font&gt;" style="rounded=0;whiteSpace=wrap;html=1;fontColor=#000000;labelBackgroundColor=#FFFFFF;strokeColor=#000000;fillColor=#FFFFFF;" vertex="1" parent="1">
          <mxGeometry x="581.75" y="204.75" width="118" height="40" as="geometry" />
        </mxCell>
        <mxCell id="lXF0hYLI2d02iIyfF7CJ-51" value="&lt;font&gt;NomPers&lt;/font&gt;" style="ellipse;whiteSpace=wrap;html=1;aspect=fixed;fontSize=10;fontColor=#000000;labelBackgroundColor=#FFFFFF;strokeColor=#000000;fillColor=#FFFFFF;" vertex="1" parent="1">
          <mxGeometry x="730.25" y="262.25" width="70" height="28" as="geometry" />
        </mxCell>
        <mxCell id="lXF0hYLI2d02iIyfF7CJ-52" value="&lt;font&gt;edadPers&lt;/font&gt;" style="ellipse;whiteSpace=wrap;html=1;aspect=fixed;fontSize=10;fontColor=#000000;labelBackgroundColor=#FFFFFF;strokeColor=#000000;fillColor=#FFFFFF;" vertex="1" parent="1">
          <mxGeometry x="681.25" y="130" width="70" height="28" as="geometry" />
        </mxCell>
        <mxCell id="lXF0hYLI2d02iIyfF7CJ-53" value="&lt;font&gt;Fecha&lt;/font&gt;" style="ellipse;whiteSpace=wrap;html=1;aspect=fixed;fontSize=10;fontColor=#000000;labelBackgroundColor=#FFFFFF;strokeColor=#000000;fillColor=#FFFFFF;" vertex="1" parent="1">
          <mxGeometry x="731.25" y="229" width="70" height="28" as="geometry" />
        </mxCell>
        <mxCell id="lXF0hYLI2d02iIyfF7CJ-54" value="&lt;font&gt;Calficacion&lt;/font&gt;" style="ellipse;whiteSpace=wrap;html=1;aspect=fixed;fontSize=10;fontColor=#000000;labelBackgroundColor=#FFFFFF;strokeColor=#000000;fillColor=#FFFFFF;" vertex="1" parent="1">
          <mxGeometry x="731.25" y="193.25" width="70" height="28" as="geometry" />
        </mxCell>
        <mxCell id="lXF0hYLI2d02iIyfF7CJ-55" value="&lt;font&gt;Comentario&lt;/font&gt;" style="ellipse;whiteSpace=wrap;html=1;aspect=fixed;fontSize=10;fontColor=#000000;labelBackgroundColor=#FFFFFF;strokeColor=#000000;fillColor=#FFFFFF;" vertex="1" parent="1">
          <mxGeometry x="608.25" y="130" width="70" height="28" as="geometry" />
        </mxCell>
        <mxCell id="lXF0hYLI2d02iIyfF7CJ-56" value="&lt;font&gt;ID&lt;/font&gt;" style="ellipse;whiteSpace=wrap;html=1;aspect=fixed;fontSize=10;fontColor=#000000;labelBackgroundColor=#FFFFFF;strokeColor=#000000;fillColor=#FFFFFF;fontStyle=4" vertex="1" parent="1">
          <mxGeometry x="731.25" y="159.25" width="70" height="28" as="geometry" />
        </mxCell>
        <mxCell id="lXF0hYLI2d02iIyfF7CJ-57" value="&lt;font&gt;Genero&lt;/font&gt;" style="ellipse;whiteSpace=wrap;html=1;aspect=fixed;fontSize=10;fontColor=#000000;labelBackgroundColor=#FFFFFF;strokeColor=#000000;fillColor=#FFFFFF;" vertex="1" parent="1">
          <mxGeometry x="552.75" y="516" width="70" height="28" as="geometry" />
        </mxCell>
        <mxCell id="lXF0hYLI2d02iIyfF7CJ-58" value="&lt;font&gt;Dirige&lt;/font&gt;" style="shape=rhombus;perimeter=rhombusPerimeter;whiteSpace=wrap;html=1;align=center;fontColor=#000000;labelBackgroundColor=#FFFFFF;fillColor=#FFFFFF;strokeColor=#000000;aspect=fixed;fontSize=11;" vertex="1" parent="1">
          <mxGeometry x="389.25" y="310.7499999999999" width="86" height="43" as="geometry" />
        </mxCell>
        <mxCell id="lXF0hYLI2d02iIyfF7CJ-59" value="&lt;font&gt;Actua&lt;/font&gt;" style="shape=rhombus;perimeter=rhombusPerimeter;whiteSpace=wrap;html=1;align=center;fontColor=#000000;labelBackgroundColor=#FFFFFF;fillColor=#FFFFFF;strokeColor=#000000;aspect=fixed;fontSize=11;" vertex="1" parent="1">
          <mxGeometry x="389.25" y="370.54999999999995" width="86" height="43" as="geometry" />
        </mxCell>
        <mxCell id="lXF0hYLI2d02iIyfF7CJ-65" value="" style="endArrow=none;html=1;rounded=0;strokeColor=#000000;entryX=0;entryY=0.5;entryDx=0;entryDy=0;exitX=1;exitY=0.5;exitDx=0;exitDy=0;" edge="1" parent="1" source="lXF0hYLI2d02iIyfF7CJ-28" target="lXF0hYLI2d02iIyfF7CJ-31">
          <mxGeometry width="50" height="50" relative="1" as="geometry">
            <mxPoint x="188.25" y="159.5" as="sourcePoint" />
            <mxPoint x="231.25" y="89" as="targetPoint" />
          </mxGeometry>
        </mxCell>
        <mxCell id="lXF0hYLI2d02iIyfF7CJ-66" value="" style="endArrow=none;html=1;rounded=0;strokeColor=#000000;entryX=0.002;entryY=0.543;entryDx=0;entryDy=0;entryPerimeter=0;exitX=1;exitY=0.5;exitDx=0;exitDy=0;" edge="1" parent="1" source="lXF0hYLI2d02iIyfF7CJ-31" target="lXF0hYLI2d02iIyfF7CJ-47">
          <mxGeometry width="50" height="50" relative="1" as="geometry">
            <mxPoint x="318.25" y="88" as="sourcePoint" />
            <mxPoint x="377.25" y="124" as="targetPoint" />
          </mxGeometry>
        </mxCell>
        <mxCell id="lXF0hYLI2d02iIyfF7CJ-68" value="1..N" style="text;html=1;align=center;verticalAlign=middle;resizable=0;points=[];autosize=1;strokeColor=none;fillColor=none;fontColor=#000000;fontSize=8;" vertex="1" parent="1">
          <mxGeometry x="306.25" y="68" width="32" height="22" as="geometry" />
        </mxCell>
        <mxCell id="lXF0hYLI2d02iIyfF7CJ-69" value="1" style="text;html=1;align=center;verticalAlign=middle;resizable=0;points=[];autosize=1;strokeColor=none;fillColor=none;fontColor=#000000;fontSize=8;" vertex="1" parent="1">
          <mxGeometry x="180.25" y="68" width="22" height="22" as="geometry" />
        </mxCell>
        <mxCell id="lXF0hYLI2d02iIyfF7CJ-70" value="" style="endArrow=none;html=1;rounded=0;strokeColor=#000000;entryX=0;entryY=0.5;entryDx=0;entryDy=0;exitX=1;exitY=0.5;exitDx=0;exitDy=0;" edge="1" parent="1" source="lXF0hYLI2d02iIyfF7CJ-21" target="lXF0hYLI2d02iIyfF7CJ-23">
          <mxGeometry width="50" height="50" relative="1" as="geometry">
            <mxPoint x="632.25" y="300.25" as="sourcePoint" />
            <mxPoint x="680.25" y="300.25" as="targetPoint" />
          </mxGeometry>
        </mxCell>
        <mxCell id="lXF0hYLI2d02iIyfF7CJ-71" value="" style="endArrow=none;html=1;rounded=0;strokeColor=#000000;entryX=0;entryY=0.5;entryDx=0;entryDy=0;exitX=1;exitY=0.5;exitDx=0;exitDy=0;" edge="1" parent="1" source="lXF0hYLI2d02iIyfF7CJ-20" target="lXF0hYLI2d02iIyfF7CJ-23">
          <mxGeometry width="50" height="50" relative="1" as="geometry">
            <mxPoint x="649.25" y="429.25" as="sourcePoint" />
            <mxPoint x="671.25" y="459.25" as="targetPoint" />
          </mxGeometry>
        </mxCell>
        <mxCell id="lXF0hYLI2d02iIyfF7CJ-72" value="" style="endArrow=none;html=1;rounded=0;strokeColor=#000000;entryX=0;entryY=0.5;entryDx=0;entryDy=0;exitX=1;exitY=0.5;exitDx=0;exitDy=0;" edge="1" parent="1" source="lXF0hYLI2d02iIyfF7CJ-23" target="lXF0hYLI2d02iIyfF7CJ-22">
          <mxGeometry width="50" height="50" relative="1" as="geometry">
            <mxPoint x="654.75" y="397.25" as="sourcePoint" />
            <mxPoint x="676.75" y="367.25" as="targetPoint" />
          </mxGeometry>
        </mxCell>
        <mxCell id="lXF0hYLI2d02iIyfF7CJ-73" value="" style="endArrow=none;html=1;rounded=0;strokeColor=#000000;entryX=0;entryY=0.5;entryDx=0;entryDy=0;exitX=1;exitY=0.5;exitDx=0;exitDy=0;" edge="1" parent="1" source="lXF0hYLI2d02iIyfF7CJ-59" target="lXF0hYLI2d02iIyfF7CJ-20">
          <mxGeometry width="50" height="50" relative="1" as="geometry">
            <mxPoint x="471.25" y="414.25" as="sourcePoint" />
            <mxPoint x="493.25" y="384.25" as="targetPoint" />
          </mxGeometry>
        </mxCell>
        <mxCell id="lXF0hYLI2d02iIyfF7CJ-74" value="" style="endArrow=none;html=1;rounded=0;strokeColor=#000000;entryX=0;entryY=0.5;entryDx=0;entryDy=0;exitX=1;exitY=0.5;exitDx=0;exitDy=0;" edge="1" parent="1" source="lXF0hYLI2d02iIyfF7CJ-58" target="lXF0hYLI2d02iIyfF7CJ-21">
          <mxGeometry width="50" height="50" relative="1" as="geometry">
            <mxPoint x="469.25" y="351.25" as="sourcePoint" />
            <mxPoint x="491.25" y="321.25" as="targetPoint" />
            <Array as="points" />
          </mxGeometry>
        </mxCell>
        <mxCell id="lXF0hYLI2d02iIyfF7CJ-75" value="" style="endArrow=none;html=1;rounded=0;strokeColor=#000000;entryX=0.5;entryY=1;entryDx=0;entryDy=0;exitX=1;exitY=0;exitDx=0;exitDy=0;" edge="1" parent="1" source="lXF0hYLI2d02iIyfF7CJ-26" target="lXF0hYLI2d02iIyfF7CJ-22">
          <mxGeometry width="50" height="50" relative="1" as="geometry">
            <mxPoint x="704.25" y="410.25" as="sourcePoint" />
            <mxPoint x="726.25" y="380.25" as="targetPoint" />
          </mxGeometry>
        </mxCell>
        <mxCell id="lXF0hYLI2d02iIyfF7CJ-76" value="" style="endArrow=none;html=1;rounded=0;strokeColor=#000000;entryX=0.5;entryY=1;entryDx=0;entryDy=0;exitX=0;exitY=0;exitDx=0;exitDy=0;" edge="1" parent="1" source="lXF0hYLI2d02iIyfF7CJ-27" target="lXF0hYLI2d02iIyfF7CJ-22">
          <mxGeometry width="50" height="50" relative="1" as="geometry">
            <mxPoint x="752.25" y="412.15" as="sourcePoint" />
            <mxPoint x="774.25" y="382.15" as="targetPoint" />
          </mxGeometry>
        </mxCell>
        <mxCell id="lXF0hYLI2d02iIyfF7CJ-77" value="" style="endArrow=none;html=1;rounded=0;strokeColor=#000000;entryX=0;entryY=0.5;entryDx=0;entryDy=0;exitX=1;exitY=0.5;exitDx=0;exitDy=0;" edge="1" parent="1" source="lXF0hYLI2d02iIyfF7CJ-1" target="lXF0hYLI2d02iIyfF7CJ-58">
          <mxGeometry width="50" height="50" relative="1" as="geometry">
            <mxPoint x="291.25" y="414" as="sourcePoint" />
            <mxPoint x="313.25" y="384" as="targetPoint" />
            <Array as="points" />
          </mxGeometry>
        </mxCell>
        <mxCell id="lXF0hYLI2d02iIyfF7CJ-78" value="" style="endArrow=none;html=1;rounded=0;strokeColor=#000000;entryX=0;entryY=0.5;entryDx=0;entryDy=0;exitX=1;exitY=0.5;exitDx=0;exitDy=0;" edge="1" parent="1" source="lXF0hYLI2d02iIyfF7CJ-1" target="lXF0hYLI2d02iIyfF7CJ-59">
          <mxGeometry width="50" height="50" relative="1" as="geometry">
            <mxPoint x="304.25" y="463" as="sourcePoint" />
            <mxPoint x="326.25" y="433" as="targetPoint" />
            <Array as="points" />
          </mxGeometry>
        </mxCell>
        <mxCell id="lXF0hYLI2d02iIyfF7CJ-79" value="Cartelera" style="shape=rhombus;perimeter=rhombusPerimeter;whiteSpace=wrap;html=1;align=center;fontColor=#000000;labelBackgroundColor=#FFFFFF;fillColor=#FFFFFF;strokeColor=#000000;aspect=fixed;fontSize=11;" vertex="1" parent="1">
          <mxGeometry x="133.25" y="135" width="86" height="43" as="geometry" />
        </mxCell>
        <mxCell id="lXF0hYLI2d02iIyfF7CJ-80" value="En" style="shape=rhombus;perimeter=rhombusPerimeter;whiteSpace=wrap;html=1;align=center;fontColor=#000000;labelBackgroundColor=#FFFFFF;fillColor=#FFFFFF;strokeColor=#000000;aspect=fixed;fontSize=11;" vertex="1" parent="1">
          <mxGeometry x="308.25" y="135" width="86" height="43" as="geometry" />
        </mxCell>
        <mxCell id="lXF0hYLI2d02iIyfF7CJ-81" value="Exhibe" style="shape=rhombus;perimeter=rhombusPerimeter;whiteSpace=wrap;html=1;align=center;fontColor=#000000;labelBackgroundColor=#FFFFFF;fillColor=#FFFFFF;strokeColor=#000000;aspect=fixed;fontSize=11;" vertex="1" parent="1">
          <mxGeometry x="180.25" y="292.25" width="86" height="43" as="geometry" />
        </mxCell>
        <mxCell id="lXF0hYLI2d02iIyfF7CJ-82" value="&lt;font style=&quot;color: rgb(0, 0, 0); font-size: 18px;&quot;&gt;Funcion&lt;/font&gt;" style="shape=ext;margin=3;double=1;whiteSpace=wrap;html=1;align=center;fillColor=#FFFFFF;strokeColor=#000000;fontColor=#000000;" vertex="1" parent="1">
          <mxGeometry x="219.25" y="230.25" width="100" height="40" as="geometry" />
        </mxCell>
        <mxCell id="lXF0hYLI2d02iIyfF7CJ-83" value="" style="endArrow=none;html=1;rounded=0;strokeColor=#000000;entryX=1;entryY=0;entryDx=0;entryDy=0;exitX=0.5;exitY=1;exitDx=0;exitDy=0;" edge="1" parent="1" source="lXF0hYLI2d02iIyfF7CJ-82" target="lXF0hYLI2d02iIyfF7CJ-81">
          <mxGeometry width="50" height="50" relative="1" as="geometry">
            <mxPoint x="245.25" y="269" as="sourcePoint" />
            <mxPoint x="301.25" y="269" as="targetPoint" />
          </mxGeometry>
        </mxCell>
        <mxCell id="lXF0hYLI2d02iIyfF7CJ-84" value="" style="endArrow=none;html=1;rounded=0;strokeColor=#000000;entryX=0.5;entryY=0;entryDx=0;entryDy=0;exitX=1;exitY=1;exitDx=0;exitDy=0;" edge="1" parent="1" source="lXF0hYLI2d02iIyfF7CJ-81" target="lXF0hYLI2d02iIyfF7CJ-1">
          <mxGeometry width="50" height="50" relative="1" as="geometry">
            <mxPoint x="247.25" y="371" as="sourcePoint" />
            <mxPoint x="303.25" y="371" as="targetPoint" />
          </mxGeometry>
        </mxCell>
        <mxCell id="lXF0hYLI2d02iIyfF7CJ-85" value="" style="endArrow=none;html=1;rounded=0;strokeColor=#000000;entryX=0;entryY=0;entryDx=0;entryDy=0;exitX=0.5;exitY=1;exitDx=0;exitDy=0;" edge="1" parent="1" source="lXF0hYLI2d02iIyfF7CJ-28" target="lXF0hYLI2d02iIyfF7CJ-79">
          <mxGeometry width="50" height="50" relative="1" as="geometry">
            <mxPoint x="143.25" y="118" as="sourcePoint" />
            <mxPoint x="199.25" y="118" as="targetPoint" />
          </mxGeometry>
        </mxCell>
        <mxCell id="lXF0hYLI2d02iIyfF7CJ-86" value="" style="endArrow=none;html=1;rounded=0;strokeColor=#000000;entryX=0.5;entryY=0;entryDx=0;entryDy=0;exitX=1;exitY=1;exitDx=0;exitDy=0;" edge="1" parent="1" source="lXF0hYLI2d02iIyfF7CJ-79" target="lXF0hYLI2d02iIyfF7CJ-82">
          <mxGeometry width="50" height="50" relative="1" as="geometry">
            <mxPoint x="185.25" y="192" as="sourcePoint" />
            <mxPoint x="241.25" y="192" as="targetPoint" />
          </mxGeometry>
        </mxCell>
        <mxCell id="lXF0hYLI2d02iIyfF7CJ-87" value="" style="endArrow=none;html=1;rounded=0;strokeColor=#000000;entryX=0.5;entryY=1;entryDx=0;entryDy=0;exitX=1;exitY=0;exitDx=0;exitDy=0;" edge="1" parent="1" source="lXF0hYLI2d02iIyfF7CJ-80" target="lXF0hYLI2d02iIyfF7CJ-47">
          <mxGeometry width="50" height="50" relative="1" as="geometry">
            <mxPoint x="373.25" y="128" as="sourcePoint" />
            <mxPoint x="429.25" y="128" as="targetPoint" />
          </mxGeometry>
        </mxCell>
        <mxCell id="lXF0hYLI2d02iIyfF7CJ-88" value="" style="endArrow=none;html=1;rounded=0;strokeColor=#000000;entryX=0;entryY=1;entryDx=0;entryDy=0;exitX=0.5;exitY=0;exitDx=0;exitDy=0;" edge="1" parent="1" source="lXF0hYLI2d02iIyfF7CJ-82" target="lXF0hYLI2d02iIyfF7CJ-80">
          <mxGeometry width="50" height="50" relative="1" as="geometry">
            <mxPoint x="268.25" y="221" as="sourcePoint" />
            <mxPoint x="324.25" y="221" as="targetPoint" />
          </mxGeometry>
        </mxCell>
        <mxCell id="lXF0hYLI2d02iIyfF7CJ-89" value="1" style="text;html=1;align=center;verticalAlign=middle;resizable=0;points=[];autosize=1;strokeColor=none;fillColor=none;fontColor=#000000;fontSize=8;" vertex="1" parent="1">
          <mxGeometry x="132.25" y="108" width="22" height="22" as="geometry" />
        </mxCell>
        <mxCell id="lXF0hYLI2d02iIyfF7CJ-90" value="1" style="text;html=1;align=center;verticalAlign=middle;resizable=0;points=[];autosize=1;strokeColor=none;fillColor=none;fontColor=#000000;fontSize=8;" vertex="1" parent="1">
          <mxGeometry x="363.25" y="106.5" width="22" height="22" as="geometry" />
        </mxCell>
        <mxCell id="lXF0hYLI2d02iIyfF7CJ-94" value="1..N" style="text;html=1;align=center;verticalAlign=middle;resizable=0;points=[];autosize=1;strokeColor=none;fillColor=none;fontColor=#000000;fontSize=8;" vertex="1" parent="1">
          <mxGeometry x="275.25" y="211" width="32" height="22" as="geometry" />
        </mxCell>
        <mxCell id="lXF0hYLI2d02iIyfF7CJ-95" value="1..N" style="text;html=1;align=center;verticalAlign=middle;resizable=0;points=[];autosize=1;strokeColor=none;fillColor=none;fontColor=#000000;fontSize=8;" vertex="1" parent="1">
          <mxGeometry x="240.25" y="342.25" width="32" height="22" as="geometry" />
        </mxCell>
        <mxCell id="lXF0hYLI2d02iIyfF7CJ-96" value="1..N" style="text;html=1;align=center;verticalAlign=middle;resizable=0;points=[];autosize=1;strokeColor=none;fillColor=none;fontColor=#000000;fontSize=8;" vertex="1" parent="1">
          <mxGeometry x="232.25" y="270.25" width="32" height="22" as="geometry" />
        </mxCell>
        <mxCell id="lXF0hYLI2d02iIyfF7CJ-97" value="1..N" style="text;html=1;align=center;verticalAlign=middle;resizable=0;points=[];autosize=1;strokeColor=none;fillColor=none;fontColor=#000000;fontSize=8;" vertex="1" parent="1">
          <mxGeometry x="225.25" y="211" width="32" height="22" as="geometry" />
        </mxCell>
        <mxCell id="lXF0hYLI2d02iIyfF7CJ-98" value="&lt;font&gt;Dispone&lt;/font&gt;" style="shape=rhombus;perimeter=rhombusPerimeter;whiteSpace=wrap;html=1;align=center;fontColor=#000000;labelBackgroundColor=#FFFFFF;fillColor=#FFFFFF;strokeColor=#000000;aspect=fixed;fontSize=11;" vertex="1" parent="1">
          <mxGeometry x="438.25" y="139" width="86" height="43" as="geometry" />
        </mxCell>
        <mxCell id="lXF0hYLI2d02iIyfF7CJ-100" value="0..N" style="text;html=1;align=center;verticalAlign=middle;resizable=0;points=[];autosize=1;strokeColor=none;fillColor=none;fontColor=#000000;fontSize=8;" vertex="1" parent="1">
          <mxGeometry x="601.25" y="103" width="32" height="22" as="geometry" />
        </mxCell>
        <mxCell id="lXF0hYLI2d02iIyfF7CJ-102" value="" style="endArrow=none;html=1;rounded=0;strokeColor=#000000;entryX=0;entryY=1;entryDx=0;entryDy=0;exitX=1;exitY=0.5;exitDx=0;exitDy=0;" edge="1" parent="1" source="lXF0hYLI2d02iIyfF7CJ-82" target="lXF0hYLI2d02iIyfF7CJ-98">
          <mxGeometry width="50" height="50" relative="1" as="geometry">
            <mxPoint x="315.25" y="290" as="sourcePoint" />
            <mxPoint x="400.25" y="242" as="targetPoint" />
          </mxGeometry>
        </mxCell>
        <mxCell id="lXF0hYLI2d02iIyfF7CJ-103" value="" style="endArrow=none;html=1;rounded=0;strokeColor=#000000;exitX=1;exitY=0;exitDx=0;exitDy=0;entryX=0.5;entryY=1;entryDx=0;entryDy=0;" edge="1" parent="1" source="lXF0hYLI2d02iIyfF7CJ-98" target="lXF0hYLI2d02iIyfF7CJ-40">
          <mxGeometry width="50" height="50" relative="1" as="geometry">
            <mxPoint x="540.25" y="220" as="sourcePoint" />
            <mxPoint x="568.25" y="174" as="targetPoint" />
          </mxGeometry>
        </mxCell>
        <mxCell id="lXF0hYLI2d02iIyfF7CJ-105" value="" style="endArrow=none;html=1;rounded=0;strokeColor=#000000;entryX=0;entryY=1;entryDx=0;entryDy=0;exitX=0.5;exitY=0;exitDx=0;exitDy=0;" edge="1" parent="1" source="lXF0hYLI2d02iIyfF7CJ-1" target="lXF0hYLI2d02iIyfF7CJ-106">
          <mxGeometry width="50" height="50" relative="1" as="geometry">
            <mxPoint x="318.25" y="349" as="sourcePoint" />
            <mxPoint x="363.25" y="346" as="targetPoint" />
            <Array as="points" />
          </mxGeometry>
        </mxCell>
        <mxCell id="lXF0hYLI2d02iIyfF7CJ-106" value="&lt;font&gt;Opinan&lt;/font&gt;" style="shape=rhombus;perimeter=rhombusPerimeter;whiteSpace=wrap;html=1;align=center;fontColor=#000000;labelBackgroundColor=#FFFFFF;fillColor=#FFFFFF;strokeColor=#000000;aspect=fixed;fontSize=11;" vertex="1" parent="1">
          <mxGeometry x="415.25" y="221.99999999999997" width="86" height="43" as="geometry" />
        </mxCell>
        <mxCell id="lXF0hYLI2d02iIyfF7CJ-107" value="" style="endArrow=none;html=1;rounded=0;strokeColor=#000000;entryX=0;entryY=0.5;entryDx=0;entryDy=0;exitX=1;exitY=0.5;exitDx=0;exitDy=0;" edge="1" parent="1" source="lXF0hYLI2d02iIyfF7CJ-106" target="lXF0hYLI2d02iIyfF7CJ-50">
          <mxGeometry width="50" height="50" relative="1" as="geometry">
            <mxPoint x="502.25" y="324" as="sourcePoint" />
            <mxPoint x="554.25" y="301" as="targetPoint" />
            <Array as="points" />
          </mxGeometry>
        </mxCell>
        <mxCell id="lXF0hYLI2d02iIyfF7CJ-108" value="1" style="text;html=1;align=center;verticalAlign=middle;resizable=0;points=[];autosize=1;strokeColor=none;fillColor=none;fontColor=#000000;fontSize=8;" vertex="1" parent="1">
          <mxGeometry x="285.25" y="336.85" width="22" height="22" as="geometry" />
        </mxCell>
        <mxCell id="lXF0hYLI2d02iIyfF7CJ-109" value="1..N" style="text;html=1;align=center;verticalAlign=middle;resizable=0;points=[];autosize=1;strokeColor=none;fillColor=none;fontColor=#000000;fontSize=8;" vertex="1" parent="1">
          <mxGeometry x="549.75" y="207" width="32" height="22" as="geometry" />
        </mxCell>
        <mxCell id="lXF0hYLI2d02iIyfF7CJ-110" value="1..N" style="text;html=1;align=center;verticalAlign=middle;resizable=0;points=[];autosize=1;strokeColor=none;fillColor=none;fontColor=#000000;fontSize=8;" vertex="1" parent="1">
          <mxGeometry x="472.25" y="314.85" width="32" height="22" as="geometry" />
        </mxCell>
        <mxCell id="lXF0hYLI2d02iIyfF7CJ-111" value="1..N" style="text;html=1;align=center;verticalAlign=middle;resizable=0;points=[];autosize=1;strokeColor=none;fillColor=none;fontColor=#000000;fontSize=8;" vertex="1" parent="1">
          <mxGeometry x="472.25" y="374.25" width="32" height="22" as="geometry" />
        </mxCell>
        <mxCell id="lXF0hYLI2d02iIyfF7CJ-112" value="1..N" style="text;html=1;align=center;verticalAlign=middle;resizable=0;points=[];autosize=1;strokeColor=none;fillColor=none;fontColor=#000000;fontSize=8;" vertex="1" parent="1">
          <mxGeometry x="331.25" y="385" width="32" height="22" as="geometry" />
        </mxCell>
        <mxCell id="lXF0hYLI2d02iIyfF7CJ-113" value="1..N" style="text;html=1;align=center;verticalAlign=middle;resizable=0;points=[];autosize=1;strokeColor=none;fillColor=none;fontColor=#000000;fontSize=8;" vertex="1" parent="1">
          <mxGeometry x="327.25" y="353.75" width="32" height="22" as="geometry" />
        </mxCell>
        <mxCell id="lXF0hYLI2d02iIyfF7CJ-114" value="" style="endArrow=none;html=1;rounded=0;strokeColor=#000000;entryX=0;entryY=0;entryDx=0;entryDy=0;exitX=0.5;exitY=1;exitDx=0;exitDy=0;" edge="1" parent="1" source="lXF0hYLI2d02iIyfF7CJ-1" target="lXF0hYLI2d02iIyfF7CJ-57">
          <mxGeometry width="50" height="50" relative="1" as="geometry">
            <mxPoint x="251.25" y="458" as="sourcePoint" />
            <mxPoint x="387.25" y="527" as="targetPoint" />
          </mxGeometry>
        </mxCell>
        <mxCell id="lXF0hYLI2d02iIyfF7CJ-115" value="" style="endArrow=none;html=1;rounded=0;strokeColor=#000000;entryX=0;entryY=0;entryDx=0;entryDy=0;exitX=0.5;exitY=1;exitDx=0;exitDy=0;" edge="1" parent="1" source="lXF0hYLI2d02iIyfF7CJ-1" target="lXF0hYLI2d02iIyfF7CJ-147">
          <mxGeometry width="50" height="50" relative="1" as="geometry">
            <mxPoint x="243.25" y="469" as="sourcePoint" />
            <mxPoint x="271.96921964306046" y="546.3179990122358" as="targetPoint" />
          </mxGeometry>
        </mxCell>
        <mxCell id="lXF0hYLI2d02iIyfF7CJ-116" value="" style="endArrow=none;html=1;rounded=0;strokeColor=#000000;entryX=0.5;entryY=0;entryDx=0;entryDy=0;exitX=0.5;exitY=1;exitDx=0;exitDy=0;" edge="1" parent="1" source="lXF0hYLI2d02iIyfF7CJ-1" target="lXF0hYLI2d02iIyfF7CJ-8">
          <mxGeometry width="50" height="50" relative="1" as="geometry">
            <mxPoint x="222.25" y="462" as="sourcePoint" />
            <mxPoint x="275.25" y="521" as="targetPoint" />
          </mxGeometry>
        </mxCell>
        <mxCell id="lXF0hYLI2d02iIyfF7CJ-117" value="" style="endArrow=none;html=1;rounded=0;strokeColor=#000000;entryX=0.5;entryY=0;entryDx=0;entryDy=0;exitX=0.5;exitY=1;exitDx=0;exitDy=0;" edge="1" parent="1" source="lXF0hYLI2d02iIyfF7CJ-1" target="lXF0hYLI2d02iIyfF7CJ-7">
          <mxGeometry width="50" height="50" relative="1" as="geometry">
            <mxPoint x="196.25" y="499" as="sourcePoint" />
            <mxPoint x="193.25" y="522" as="targetPoint" />
          </mxGeometry>
        </mxCell>
        <mxCell id="lXF0hYLI2d02iIyfF7CJ-118" value="" style="endArrow=none;html=1;rounded=0;strokeColor=#000000;entryX=0;entryY=0;entryDx=0;entryDy=0;exitX=0.5;exitY=1;exitDx=0;exitDy=0;" edge="1" parent="1" source="lXF0hYLI2d02iIyfF7CJ-7" target="lXF0hYLI2d02iIyfF7CJ-13">
          <mxGeometry width="50" height="50" relative="1" as="geometry">
            <mxPoint x="371.75" y="553" as="sourcePoint" />
            <mxPoint x="416.75" y="553" as="targetPoint" />
          </mxGeometry>
        </mxCell>
        <mxCell id="lXF0hYLI2d02iIyfF7CJ-119" value="" style="endArrow=none;html=1;rounded=0;strokeColor=#000000;entryX=0.5;entryY=1;entryDx=0;entryDy=0;exitX=1;exitY=0;exitDx=0;exitDy=0;" edge="1" parent="1" source="lXF0hYLI2d02iIyfF7CJ-14" target="lXF0hYLI2d02iIyfF7CJ-7">
          <mxGeometry width="50" height="50" relative="1" as="geometry">
            <mxPoint x="301.75" y="559" as="sourcePoint" />
            <mxPoint x="346.75" y="559" as="targetPoint" />
          </mxGeometry>
        </mxCell>
        <mxCell id="lXF0hYLI2d02iIyfF7CJ-120" value="" style="endArrow=none;html=1;rounded=0;strokeColor=#000000;exitX=0.5;exitY=0;exitDx=0;exitDy=0;entryX=0.5;entryY=1;entryDx=0;entryDy=0;" edge="1" parent="1" source="lXF0hYLI2d02iIyfF7CJ-15" target="lXF0hYLI2d02iIyfF7CJ-1">
          <mxGeometry width="50" height="50" relative="1" as="geometry">
            <mxPoint x="67.75" y="536" as="sourcePoint" />
            <mxPoint x="201.25" y="474" as="targetPoint" />
          </mxGeometry>
        </mxCell>
        <mxCell id="lXF0hYLI2d02iIyfF7CJ-121" value="" style="endArrow=none;html=1;rounded=0;strokeColor=#000000;exitX=1;exitY=0;exitDx=0;exitDy=0;entryX=0.5;entryY=1;entryDx=0;entryDy=0;" edge="1" parent="1" source="lXF0hYLI2d02iIyfF7CJ-11" target="lXF0hYLI2d02iIyfF7CJ-1">
          <mxGeometry width="50" height="50" relative="1" as="geometry">
            <mxPoint x="88.24873734152902" y="500.4505050633884" as="sourcePoint" />
            <mxPoint x="175.7265100671141" y="473" as="targetPoint" />
          </mxGeometry>
        </mxCell>
        <mxCell id="lXF0hYLI2d02iIyfF7CJ-122" value="" style="endArrow=none;html=1;rounded=0;strokeColor=#000000;entryX=0.5;entryY=1;entryDx=0;entryDy=0;exitX=1;exitY=0;exitDx=0;exitDy=0;" edge="1" parent="1" source="lXF0hYLI2d02iIyfF7CJ-6" target="lXF0hYLI2d02iIyfF7CJ-1">
          <mxGeometry width="50" height="50" relative="1" as="geometry">
            <mxPoint x="85.25" y="460" as="sourcePoint" />
            <mxPoint x="130.25" y="460" as="targetPoint" />
          </mxGeometry>
        </mxCell>
        <mxCell id="lXF0hYLI2d02iIyfF7CJ-123" value="" style="endArrow=none;html=1;rounded=0;strokeColor=#000000;exitX=1;exitY=0;exitDx=0;exitDy=0;entryX=0.5;entryY=1;entryDx=0;entryDy=0;" edge="1" parent="1" source="lXF0hYLI2d02iIyfF7CJ-18" target="lXF0hYLI2d02iIyfF7CJ-1">
          <mxGeometry width="50" height="50" relative="1" as="geometry">
            <mxPoint x="78.25" y="434" as="sourcePoint" />
            <mxPoint x="133.25" y="434" as="targetPoint" />
          </mxGeometry>
        </mxCell>
        <mxCell id="lXF0hYLI2d02iIyfF7CJ-124" value="" style="endArrow=none;html=1;rounded=0;strokeColor=#000000;entryX=0;entryY=0.5;entryDx=0;entryDy=0;exitX=1;exitY=0.5;exitDx=0;exitDy=0;" edge="1" parent="1" source="lXF0hYLI2d02iIyfF7CJ-5" target="lXF0hYLI2d02iIyfF7CJ-1">
          <mxGeometry width="50" height="50" relative="1" as="geometry">
            <mxPoint x="89.25" y="400" as="sourcePoint" />
            <mxPoint x="134.25" y="400" as="targetPoint" />
          </mxGeometry>
        </mxCell>
        <mxCell id="lXF0hYLI2d02iIyfF7CJ-125" value="" style="endArrow=none;html=1;rounded=0;strokeColor=#000000;exitX=1;exitY=0.5;exitDx=0;exitDy=0;entryX=0;entryY=0.5;entryDx=0;entryDy=0;" edge="1" parent="1" source="lXF0hYLI2d02iIyfF7CJ-16" target="lXF0hYLI2d02iIyfF7CJ-1">
          <mxGeometry width="50" height="50" relative="1" as="geometry">
            <mxPoint x="90.25" y="352" as="sourcePoint" />
            <mxPoint x="146.48166023166024" y="382" as="targetPoint" />
          </mxGeometry>
        </mxCell>
        <mxCell id="lXF0hYLI2d02iIyfF7CJ-126" value="" style="endArrow=none;html=1;rounded=0;strokeColor=#000000;exitX=1;exitY=0.5;exitDx=0;exitDy=0;entryX=0;entryY=0.5;entryDx=0;entryDy=0;" edge="1" parent="1" source="lXF0hYLI2d02iIyfF7CJ-9" target="lXF0hYLI2d02iIyfF7CJ-1">
          <mxGeometry width="50" height="50" relative="1" as="geometry">
            <mxPoint x="88.25" y="342.5" as="sourcePoint" />
            <mxPoint x="142.25" y="366" as="targetPoint" />
          </mxGeometry>
        </mxCell>
        <mxCell id="lXF0hYLI2d02iIyfF7CJ-127" value="" style="endArrow=none;html=1;rounded=0;strokeColor=#000000;entryX=0.5;entryY=1;entryDx=0;entryDy=0;exitX=0;exitY=0;exitDx=0;exitDy=0;" edge="1" parent="1" source="lXF0hYLI2d02iIyfF7CJ-12" target="lXF0hYLI2d02iIyfF7CJ-1">
          <mxGeometry width="50" height="50" relative="1" as="geometry">
            <mxPoint x="153.25" y="349" as="sourcePoint" />
            <mxPoint x="198.25" y="349" as="targetPoint" />
          </mxGeometry>
        </mxCell>
        <mxCell id="lXF0hYLI2d02iIyfF7CJ-131" value="" style="endArrow=none;html=1;rounded=0;strokeColor=#000000;entryX=0;entryY=0.5;entryDx=0;entryDy=0;exitX=1;exitY=0.5;exitDx=0;exitDy=0;" edge="1" parent="1" source="lXF0hYLI2d02iIyfF7CJ-39" target="lXF0hYLI2d02iIyfF7CJ-82">
          <mxGeometry width="50" height="50" relative="1" as="geometry">
            <mxPoint x="105.25" y="242" as="sourcePoint" />
            <mxPoint x="194.25" y="255" as="targetPoint" />
          </mxGeometry>
        </mxCell>
        <mxCell id="lXF0hYLI2d02iIyfF7CJ-132" value="" style="endArrow=none;html=1;rounded=0;strokeColor=#000000;entryX=0;entryY=0.5;entryDx=0;entryDy=0;exitX=1;exitY=0.5;exitDx=0;exitDy=0;" edge="1" parent="1" source="lXF0hYLI2d02iIyfF7CJ-38" target="lXF0hYLI2d02iIyfF7CJ-82">
          <mxGeometry width="50" height="50" relative="1" as="geometry">
            <mxPoint x="110.25" y="214" as="sourcePoint" />
            <mxPoint x="199.25" y="227" as="targetPoint" />
          </mxGeometry>
        </mxCell>
        <mxCell id="lXF0hYLI2d02iIyfF7CJ-133" value="" style="endArrow=none;html=1;rounded=0;strokeColor=#000000;entryX=0;entryY=0.5;entryDx=0;entryDy=0;exitX=1;exitY=0.5;exitDx=0;exitDy=0;" edge="1" parent="1" source="lXF0hYLI2d02iIyfF7CJ-149" target="lXF0hYLI2d02iIyfF7CJ-82">
          <mxGeometry width="50" height="50" relative="1" as="geometry">
            <mxPoint x="114.25" y="222" as="sourcePoint" />
            <mxPoint x="193.25" y="197" as="targetPoint" />
          </mxGeometry>
        </mxCell>
        <mxCell id="lXF0hYLI2d02iIyfF7CJ-134" value="" style="endArrow=none;html=1;rounded=0;strokeColor=#000000;entryX=0.5;entryY=0;entryDx=0;entryDy=0;exitX=1;exitY=1;exitDx=0;exitDy=0;" edge="1" parent="1" source="lXF0hYLI2d02iIyfF7CJ-45" target="lXF0hYLI2d02iIyfF7CJ-28">
          <mxGeometry width="50" height="50" relative="1" as="geometry">
            <mxPoint x="56.25" y="46" as="sourcePoint" />
            <mxPoint x="114.25" y="62" as="targetPoint" />
          </mxGeometry>
        </mxCell>
        <mxCell id="lXF0hYLI2d02iIyfF7CJ-135" value="" style="endArrow=none;html=1;rounded=0;strokeColor=#000000;exitX=0.5;exitY=1;exitDx=0;exitDy=0;" edge="1" parent="1" source="lXF0hYLI2d02iIyfF7CJ-46" target="lXF0hYLI2d02iIyfF7CJ-28">
          <mxGeometry width="50" height="50" relative="1" as="geometry">
            <mxPoint x="130.25" y="44" as="sourcePoint" />
            <mxPoint x="188.25" y="60" as="targetPoint" />
          </mxGeometry>
        </mxCell>
        <mxCell id="lXF0hYLI2d02iIyfF7CJ-136" value="" style="endArrow=none;html=1;rounded=0;strokeColor=#000000;entryX=0.5;entryY=0;entryDx=0;entryDy=0;exitX=0;exitY=1;exitDx=0;exitDy=0;" edge="1" parent="1" source="lXF0hYLI2d02iIyfF7CJ-49" target="lXF0hYLI2d02iIyfF7CJ-28">
          <mxGeometry width="50" height="50" relative="1" as="geometry">
            <mxPoint x="206.25" y="45" as="sourcePoint" />
            <mxPoint x="264.25" y="61" as="targetPoint" />
          </mxGeometry>
        </mxCell>
        <mxCell id="lXF0hYLI2d02iIyfF7CJ-137" value="" style="endArrow=none;html=1;rounded=0;strokeColor=#000000;entryX=0.5;entryY=0;entryDx=0;entryDy=0;exitX=0.5;exitY=1;exitDx=0;exitDy=0;" edge="1" parent="1" source="lXF0hYLI2d02iIyfF7CJ-148" target="lXF0hYLI2d02iIyfF7CJ-47">
          <mxGeometry width="50" height="50" relative="1" as="geometry">
            <mxPoint x="350.25" y="39" as="sourcePoint" />
            <mxPoint x="353.25" y="80" as="targetPoint" />
          </mxGeometry>
        </mxCell>
        <mxCell id="lXF0hYLI2d02iIyfF7CJ-138" value="" style="endArrow=none;html=1;rounded=0;strokeColor=#000000;entryX=0.5;entryY=0;entryDx=0;entryDy=0;exitX=0.5;exitY=1;exitDx=0;exitDy=0;" edge="1" parent="1" source="lXF0hYLI2d02iIyfF7CJ-44" target="lXF0hYLI2d02iIyfF7CJ-47">
          <mxGeometry width="50" height="50" relative="1" as="geometry">
            <mxPoint x="461.25" y="52" as="sourcePoint" />
            <mxPoint x="411.25" y="85" as="targetPoint" />
          </mxGeometry>
        </mxCell>
        <mxCell id="lXF0hYLI2d02iIyfF7CJ-139" value="" style="endArrow=none;html=1;rounded=0;strokeColor=#000000;exitX=0.5;exitY=1;exitDx=0;exitDy=0;entryX=0.5;entryY=0;entryDx=0;entryDy=0;" edge="1" parent="1" source="lXF0hYLI2d02iIyfF7CJ-41" target="lXF0hYLI2d02iIyfF7CJ-40">
          <mxGeometry width="50" height="50" relative="1" as="geometry">
            <mxPoint x="610.75" y="44" as="sourcePoint" />
            <mxPoint x="572.75" y="71" as="targetPoint" />
          </mxGeometry>
        </mxCell>
        <mxCell id="lXF0hYLI2d02iIyfF7CJ-140" value="" style="endArrow=none;html=1;rounded=0;strokeColor=#000000;entryX=0.5;entryY=0;entryDx=0;entryDy=0;exitX=0;exitY=1;exitDx=0;exitDy=0;" edge="1" parent="1" source="lXF0hYLI2d02iIyfF7CJ-42" target="lXF0hYLI2d02iIyfF7CJ-40">
          <mxGeometry width="50" height="50" relative="1" as="geometry">
            <mxPoint x="669.75" y="47" as="sourcePoint" />
            <mxPoint x="631.75" y="75" as="targetPoint" />
          </mxGeometry>
        </mxCell>
        <mxCell id="lXF0hYLI2d02iIyfF7CJ-141" value="" style="endArrow=none;html=1;rounded=0;strokeColor=#000000;entryX=0.5;entryY=0;entryDx=0;entryDy=0;exitX=0.5;exitY=1;exitDx=0;exitDy=0;" edge="1" parent="1" source="lXF0hYLI2d02iIyfF7CJ-55" target="lXF0hYLI2d02iIyfF7CJ-50">
          <mxGeometry width="50" height="50" relative="1" as="geometry">
            <mxPoint x="606.25" y="174" as="sourcePoint" />
            <mxPoint x="626.25" y="174" as="targetPoint" />
          </mxGeometry>
        </mxCell>
        <mxCell id="lXF0hYLI2d02iIyfF7CJ-142" value="" style="endArrow=none;html=1;rounded=0;strokeColor=#000000;entryX=0.5;entryY=1;entryDx=0;entryDy=0;exitX=0.5;exitY=0;exitDx=0;exitDy=0;" edge="1" parent="1" source="lXF0hYLI2d02iIyfF7CJ-50" target="lXF0hYLI2d02iIyfF7CJ-52">
          <mxGeometry width="50" height="50" relative="1" as="geometry">
            <mxPoint x="660.25" y="175" as="sourcePoint" />
            <mxPoint x="680.25" y="175" as="targetPoint" />
          </mxGeometry>
        </mxCell>
        <mxCell id="lXF0hYLI2d02iIyfF7CJ-143" value="" style="endArrow=none;html=1;rounded=0;strokeColor=#000000;entryX=0;entryY=1;entryDx=0;entryDy=0;exitX=1;exitY=0.5;exitDx=0;exitDy=0;" edge="1" parent="1" source="lXF0hYLI2d02iIyfF7CJ-50" target="lXF0hYLI2d02iIyfF7CJ-56">
          <mxGeometry width="50" height="50" relative="1" as="geometry">
            <mxPoint x="714.25" y="168" as="sourcePoint" />
            <mxPoint x="734.25" y="168" as="targetPoint" />
          </mxGeometry>
        </mxCell>
        <mxCell id="lXF0hYLI2d02iIyfF7CJ-144" value="" style="endArrow=none;html=1;rounded=0;strokeColor=#000000;entryX=0;entryY=1;entryDx=0;entryDy=0;exitX=1;exitY=0.5;exitDx=0;exitDy=0;" edge="1" parent="1" source="lXF0hYLI2d02iIyfF7CJ-50" target="lXF0hYLI2d02iIyfF7CJ-54">
          <mxGeometry width="50" height="50" relative="1" as="geometry">
            <mxPoint x="702.25" y="185" as="sourcePoint" />
            <mxPoint x="722.25" y="185" as="targetPoint" />
          </mxGeometry>
        </mxCell>
        <mxCell id="lXF0hYLI2d02iIyfF7CJ-145" value="" style="endArrow=none;html=1;rounded=0;strokeColor=#000000;entryX=0;entryY=0;entryDx=0;entryDy=0;exitX=1;exitY=0.5;exitDx=0;exitDy=0;" edge="1" parent="1" source="lXF0hYLI2d02iIyfF7CJ-50" target="lXF0hYLI2d02iIyfF7CJ-53">
          <mxGeometry width="50" height="50" relative="1" as="geometry">
            <mxPoint x="705.25" y="217" as="sourcePoint" />
            <mxPoint x="725.25" y="217" as="targetPoint" />
          </mxGeometry>
        </mxCell>
        <mxCell id="lXF0hYLI2d02iIyfF7CJ-146" value="" style="endArrow=none;html=1;rounded=0;strokeColor=#000000;entryX=0;entryY=0;entryDx=0;entryDy=0;exitX=1;exitY=0.5;exitDx=0;exitDy=0;" edge="1" parent="1" source="lXF0hYLI2d02iIyfF7CJ-50" target="lXF0hYLI2d02iIyfF7CJ-51">
          <mxGeometry width="50" height="50" relative="1" as="geometry">
            <mxPoint x="705.25" y="250" as="sourcePoint" />
            <mxPoint x="725.25" y="250" as="targetPoint" />
          </mxGeometry>
        </mxCell>
        <mxCell id="lXF0hYLI2d02iIyfF7CJ-147" value="PaisProd" style="ellipse;shape=doubleEllipse;margin=3;whiteSpace=wrap;html=1;align=center;aspect=fixed;fontSize=10;fontColor=#000000;fillColor=#FFFFFF;strokeColor=#000000;" vertex="1" parent="1">
          <mxGeometry x="469.75" y="514" width="80" height="32" as="geometry" />
        </mxCell>
        <mxCell id="lXF0hYLI2d02iIyfF7CJ-148" value="&lt;span style=&quot;border-bottom: 1px dotted&quot;&gt;ID&lt;/span&gt;" style="ellipse;whiteSpace=wrap;html=1;align=center;labelBackgroundColor=#FFFFFF;fontColor=#000000;fillColor=#FFFFFF;strokeColor=#000000;aspect=fixed;fontSize=10;" vertex="1" parent="1">
          <mxGeometry x="316.25" y="11" width="70" height="28" as="geometry" />
        </mxCell>
        <mxCell id="lXF0hYLI2d02iIyfF7CJ-149" value="&lt;span style=&quot;border-bottom: 1px dotted&quot;&gt;Codigo&lt;/span&gt;" style="ellipse;whiteSpace=wrap;html=1;align=center;labelBackgroundColor=#FFFFFF;fontColor=#000000;fillColor=#FFFFFF;strokeColor=#000000;aspect=fixed;fontSize=10;" vertex="1" parent="1">
          <mxGeometry x="41.25" y="202.25" width="70" height="28" as="geometry" />
        </mxCell>
        <mxCell id="lXF0hYLI2d02iIyfF7CJ-150" value="&lt;font&gt;CantDir&lt;/font&gt;" style="ellipse;whiteSpace=wrap;html=1;aspect=fixed;fontSize=10;fontColor=#000000;labelBackgroundColor=#FFFFFF;strokeColor=#000000;fillColor=#FFFFFF;" vertex="1" parent="1">
          <mxGeometry x="509.5" y="262" width="70" height="28" as="geometry" />
        </mxCell>
        <mxCell id="lXF0hYLI2d02iIyfF7CJ-151" value="&lt;font&gt;CantAct&lt;/font&gt;" style="ellipse;whiteSpace=wrap;html=1;aspect=fixed;fontSize=10;fontColor=#000000;labelBackgroundColor=#FFFFFF;strokeColor=#000000;fillColor=#FFFFFF;" vertex="1" parent="1">
          <mxGeometry x="509.5" y="437.25" width="70" height="28" as="geometry" />
        </mxCell>
        <mxCell id="lXF0hYLI2d02iIyfF7CJ-152" value="" style="endArrow=none;html=1;rounded=0;strokeColor=#000000;entryX=0.5;entryY=0;entryDx=0;entryDy=0;exitX=0.5;exitY=1;exitDx=0;exitDy=0;" edge="1" parent="1" source="lXF0hYLI2d02iIyfF7CJ-150" target="lXF0hYLI2d02iIyfF7CJ-21">
          <mxGeometry width="50" height="50" relative="1" as="geometry">
            <mxPoint x="558.25" y="292" as="sourcePoint" />
            <mxPoint x="573.25" y="313" as="targetPoint" />
          </mxGeometry>
        </mxCell>
        <mxCell id="lXF0hYLI2d02iIyfF7CJ-153" value="" style="endArrow=none;html=1;rounded=0;strokeColor=#000000;entryX=0.5;entryY=0;entryDx=0;entryDy=0;exitX=0.5;exitY=1;exitDx=0;exitDy=0;" edge="1" parent="1" source="lXF0hYLI2d02iIyfF7CJ-20" target="lXF0hYLI2d02iIyfF7CJ-151">
          <mxGeometry width="50" height="50" relative="1" as="geometry">
            <mxPoint x="571.25" y="415" as="sourcePoint" />
            <mxPoint x="586.25" y="436" as="targetPoint" />
          </mxGeometry>
        </mxCell>
        <mxCell id="lXF0hYLI2d02iIyfF7CJ-154" value="&lt;font&gt;ID&lt;/font&gt;" style="ellipse;whiteSpace=wrap;html=1;aspect=fixed;fontSize=10;fontColor=#000000;labelBackgroundColor=#FFFFFF;strokeColor=#000000;fillColor=#FFFFFF;fontStyle=4" vertex="1" parent="1">
          <mxGeometry x="501.25" y="13" width="70" height="28" as="geometry" />
        </mxCell>
        <mxCell id="lXF0hYLI2d02iIyfF7CJ-155" value="" style="endArrow=none;html=1;rounded=0;strokeColor=#000000;exitX=1;exitY=1;exitDx=0;exitDy=0;entryX=0.492;entryY=-0.007;entryDx=0;entryDy=0;entryPerimeter=0;" edge="1" parent="1" source="lXF0hYLI2d02iIyfF7CJ-154" target="lXF0hYLI2d02iIyfF7CJ-40">
          <mxGeometry width="50" height="50" relative="1" as="geometry">
            <mxPoint x="554.75" y="41" as="sourcePoint" />
            <mxPoint x="553.75" y="63" as="targetPoint" />
          </mxGeometry>
        </mxCell>
        <mxCell id="lXF0hYLI2d02iIyfF7CJ-156" value="1..N" style="text;html=1;align=center;verticalAlign=middle;resizable=0;points=[];autosize=1;strokeColor=none;fillColor=none;fontColor=#000000;fontSize=8;" vertex="1" parent="1">
          <mxGeometry x="319.25" y="244.75" width="32" height="22" as="geometry" />
        </mxCell>
      </root>
    </mxGraphModel>
  </diagram>
</mxfile>
